<svg id="Layer_1" data-name="Layer 1" xmlns="http://www.w3.org/2000/svg" viewBox="0 0 1051.15 949.69"><title>technobytes</title><path d="M822,749.8c2.37,61.44-22.49,103.23-67.56,118.6-40.83,13.93-74.76-5.66-114.56-46.39-34.36-35.16-78.49-60.9-119.18-89.58-4.81-3.39-15.24.42-22.86,2-11.13,2.24-22,6.08-33.13,8.09-15.17,2.72-37.66-1.11-44.33,7.59-14,18.26-21.92,42.29-27.75,65.12-2.48,9.7,4.75,23.46,10.76,33.45,21.57,35.84,21.89,67.15-.91,95-21.19,25.88-54.21,35.43-82.73,23.92-35.2-14.2-56.05-46-54.32-82.92,1.62-34.56,22.46-58,60.75-68.45,45.29-12.32,58.33-72.29,35-112.27-26.28-45-60.34-58.76-108-56.32-27.77,1.41-55.78-2-83.56-.7-34.91,1.62-64.06-19.83-70.35-56-6.07-34.87,4.46-65.18,28.05-91.25,24.25-26.81,46.82-55.4,73.07-80.08,26.81-25.2,27-55.38,24-87.21-1.9-20.22-35.25-28.86-58.89-16.09-14.86,8-29.19,18.87-45.13,22.64-24.72,5.86-41-13.31-27-33.47,15.31-22.1,38.32-40.06,61.13-55,6.5-4.26,29.22,4.64,35.43,13.71,18.21,26.63,42.06,32.75,68.85,16.42,46.4-28.27,78-63.11,86.19-120.86,4.51-31.8,40.87-46.29,70-43.36,45.52,4.59,89.82,20.21,135,29.21a707.12,707.12,0,0,0,90.09,11.61c8.14.56,19-6.72,24.44-13.69,2.4-3.11-4-16-9.33-21.58-16.35-17.17-9.1-30.44,9.54-29.39,25,1.4,49.78,10.89,74.12,18.57,4.43,1.39,10.22,12.78,8.55,16-2.94,5.67-10.67,10.12-17.31,12.29-7.35,2.4-16.9-.61-23.41,2.76-15.55,8.07-28.63,21.06-8.36,35.78,21.56,15.66,44.89,30.73,69.75,39.52,30.78,10.88,64,14.8,96,22.15,42.26,9.69,69.53,37.43,86.21,75.73,3.41,7.83,1.67,20.37-2.31,28.46-9.37,19-18.24,40.25-33.23,54.24-36,33.58-21.8,71.58-14.83,109.15,5.1,27.49,57.67,50.9,80.25,35.85,20.71-13.81,39.53-10,56.36,4.2,10.09,8.54,18.62,20.29,24.44,32.25,16.64,34.17,6,75.89-20.76,87.26-25.69,10.94-61.45-9-71-47.32-9-36.25-36.73-46.8-63.59-60.21-14.89-7.43-67.34,27.34-69.58,46.53C830.36,655.17,826.32,704.88,822,749.8ZM737.81,376.63C728,360.07,718,346.12,711.14,330.71c-11.92-27-29.34-36.16-60.3-38s-62.22-16.56-91-30.49c-22.52-10.91-113,3.7-124.92,25.4-2,3.69-2.17,8.87-1.89,13.28,2.41,38.26-18.18,63.56-45.32,87-8.16,7-16.33,24.84-12.91,32.6,12.75,28.86,30.15,55.7,46.54,82.85.9,1.49,8.56-.79,13-1.78,40.15-9,80,.15,102.26,31.24,31.16,43.48,61.43,28.25,96,12.88C644,540.61,658,539,666.84,531.22c8.09-7.12,16.92-21.8,14.84-30.68-10.68-45.62,2.32-80.41,40-107.24C727.64,389.06,732.06,382.67,737.81,376.63Zm56.73,314.1C796.19,660,803,631.82,796.7,607c-3-11.81-31.27-16.81-47.63-25.75-8.9-4.87-16.37-12.36-25.31-17.13-6.61-3.53-17.25-8.77-21.46-6.06C655.87,588,572.7,570.67,571,658.66a5.6,5.6,0,0,1-1.32,3.11c-27,33.29-11,54.43,19.72,72.25,11.47,6.65,21.83,15.24,32.87,23.08C674,662.54,712.51,661.15,794.54,690.73ZM241.89,609.31c27.33,2.1,53.06,9.28,75.57,3.64,11.41-2.86,16.62-29.09,25.39-44.31,5.64-9.79,13.23-18.44,18.86-28.23,4.34-7.53,11.62-17.53,9.58-23.84-10.1-31.23-19.1-64-36.53-91.07-7-10.83-34.61-8.22-52.77-12.09-6.61-1.41-12.92-5.09-19.51-5.49-7.15-.43-17.38-.91-21.19,3.27-15.4,16.91-28.85,35.6-43.5,54.24C261.5,501.11,266.54,517.58,241.89,609.31ZM891.77,364.45c-12.15-7.19-27.71-12-36.44-22.47-17.37-20.87-34.91-43.33-44.65-68.16-5.47-13.95-3.78-29.23-22.8-30.22-16.59-.86-39-5.63-48.62,2.87-13.74,12.16-30,30.48-12.34,56.14,26.71,38.82,46.78,78.76,100.72,92.49C870.83,406.1,872.27,412.58,891.77,364.45ZM352,234c38.75,16.53,72.43,28.29,115,12.58,39.79-14.67,70.33-30.46,80.66-84.24-21.31-.89-48.5-10.41-60.25-.88-29.59,24-61.19,34.06-97,34C364.08,195.41,354.3,208.6,352,234Z" transform="translate(-17.85 -71.54)"/><path d="M659.79,959.18c-.26,34.36-27.7,61.69-62.29,62.05-33.36.35-65.82-30.14-65.15-61.18.71-32.12,34.49-64.53,67.46-64.71C633.14,895.15,660.06,923.8,659.79,959.18Z" transform="translate(-17.85 -71.54)"/><path d="M921.21,868.4c-25.94-1-50.94-30.52-50.37-59.44.61-30.9,30.7-62.66,57.79-61,24.78,1.54,48.37,32,48,61.9S948.08,869.45,921.21,868.4Z" transform="translate(-17.85 -71.54)"/><path d="M134.75,701.52c25.3-.57,48.85,24.93,50.45,54.63,1.56,29.16-25.19,63-50.33,63.7-23.52.63-48.28-27.3-49.49-55.83C84,731.15,106.89,702.15,134.75,701.52Z" transform="translate(-17.85 -71.54)"/><path d="M17.85,497.45c.44-38.38,30.27-74.52,53.5-69.34,9.74,2.18,21.77,18.38,23.08,29.35C97.72,485.07,64.67,523,42.7,517.94,31.59,515.39,23,502,17.85,497.45Z" transform="translate(-17.85 -71.54)"/><path d="M986.83,387.16c4.58-3.8,12.71-16,22.58-17.64,19.27-3.18,54.12,36,51.79,58.72-.94,9.16-11.89,22.37-20.63,24.61C1020.5,458,988.4,421.92,986.83,387.16Z" transform="translate(-17.85 -71.54)"/><path d="M310.7,153.71c-16,11-29.05,23-44.44,29.65-9.66,4.16-22.82.66-34.28-.56-1.29-.14-3.16-8.06-2.41-11.92,3.53-18.31,52.89-40.49,68.3-30.82C301.35,142.23,303.72,146.15,310.7,153.71Z" transform="translate(-17.85 -71.54)"/><path d="M907.15,215.31c-25.83,8.91-60.61-3.34-70.89-25.7-2-4.33-2.69-12.64-.18-14.91,4.31-3.9,13.44-8,17.36-5.92,20.53,10.78,40,23.46,59.92,35.48Z" transform="translate(-17.85 -71.54)"/><path d="M482.57,96c26.92-32.76,51.17-32.46,76.86,0Z" transform="translate(-17.85 -71.54)"/><path d="M627.24,390.76c-.38,37.15-31.4,64.08-73.48,63.81-42.62-.28-78-29.36-78.55-64.63-.61-36.27,33.58-65.23,76.78-65C595.83,325.12,627.64,353,627.24,390.76Z" transform="translate(-17.85 -71.54)"/></svg>